<svg xmlns="http://www.w3.org/2000/svg" width="2100" height="1500" viewBox="0 0 2100 1500">
  <metadata><?xpacket begin="﻿" id="W5M0MpCehiHzreSzNTczkc9d"?>
<x:xmpmeta xmlns:x="adobe:ns:meta/" x:xmptk="Adobe XMP Core 5.6-c142 79.160924, 2017/07/13-01:06:39        ">
   <rdf:RDF xmlns:rdf="http://www.w3.org/1999/02/22-rdf-syntax-ns#">
      <rdf:Description rdf:about=""/>
   </rdf:RDF>
</x:xmpmeta>
                                                                                                    
                                                                                                    
                                                                                                    
                                                                                                    
                                                                                                    
                                                                                                    
                                                                                                    
                                                                                                    
                                                                                                    
                                                                                                    
                                                                                                    
                                                                                                    
                                                                                                    
                                                                                                    
                                                                                                    
                                                                                                    
                                                                                                    
                                                                                                    
                                                                                                    
                                                                                                    
                           
<?xpacket end="w"?></metadata>
<defs>
    <style>
      .cls-1 {
        fill-rule: evenodd;
      }
    </style>
  </defs>
  <path class="cls-1" d="M719,1122s-9.5,7.5-19-1S581.5,1002.5,565,860s2.5-237.5,48-320S742.5,369.5,845,323s201.5-52.5,299-33,217.5,80.5,290,179,88.5,170.5,102,255-5.5,157.5-23,206-46.5,98.5-54,111-9,16-9,16l81,50s4.5,4.5-3,8-270,104-270,104-14.5,8.5-8-9,53-255,53-255l74,46,15-25s101.87-221.526,0-394-188.67-192.749-301.97-204.094S801.535,414.925,731.446,537.259,653.361,702.52,653,774s33.953,168.5,41,181,26.5,47.5,40,65,31,35,31,35,8.5,6.5,3,14S719,1122,719,1122ZM875,415"/>
</svg>
